# xmcd
#
# Track frame offsets: 
#        150
#        87462
#        98897
#        113997
#        132201
#        158041
#
# Disc length: 2360 seconds
#
# Revision: 0
# Processed by: cddbd v1.5.1PL2 Copyright (c) Steve Scherf et al.
# Submitted via: ExactAudioCopy v0.95b2
#
DISCID=47093606
DTITLE=The Moss Brothers Live - The Moss Brothers Live
DYEAR=1900
DGENRE=Country
TTITLE0=01_George And Norman Comedy Time
TTITLE1=02_Sorrow
TTITLE2=03_Brown Eyed Girl
TTITLE3=04_Mustang Sally
TTITLE4=05_Dont Let_The_Sun_Go_Down_On_Me
TTITLE5=06_Lifted
EXTD=
EXTT0=
EXTT1=
EXTT2=
EXTT3=
EXTT4=
EXTT5=
PLAYORDER=
